# xmcd
#
# Track frame offsets:
#	150
#	14375
#	29615
#	46481
#	63767
#	80606
#	94944
#	111162
#	127416
#	142834
#	159910
#	177253
#	191146
#
# Disc length: 2754 seconds
#
# Revision: 0
# Processed by: cddbd v1.5.2PL0 Copyright (c) Steve Scherf et al.
# Submitted via: EasyCDDAExtractor 16.0.6.1
#
DISCID=b20ac00d
DTITLE=Συλλογικός δίσκος - Ρεμπέτες και άγγελοι 2
DYEAR=2009
DGENRE=Ρεμπέτικη
TTITLE0=Γκολές Μπάμπης-Ιακωβίδης Αγάθωνας - Μη μ' αρνηθείς μικρούλα μου [Κώστα
TTITLE0=ς Σκαρβέλης]
TTITLE1=Χάρμας Τόλης - Το τελευταίο μου τσιγάρο [Τόλης Χάρμας, 2006]
TTITLE2=Αβράμογλου Σταύρος - Καϊξής [Απ. Χατζηχρήστος-Γ. Φωτίδας]
TTITLE3=Ιακωβίδης Αγάθωνας - Ο ασίκης [Γιώργος Τζωρτζής]
TTITLE4=Παπάζογλου Σοφία-Αβράμογλου Σταύρος - Πληροφορίες [Τόλης Χάρμας]
TTITLE5=Κατινάρη Μαρία-Τζωρτζήςς Γ.-Αβράμογλου Σ. - Στη μαγεμένη αραπιά [Γ. Μη
TTITLE5=τσάκης]
TTITLE6=Αβράμογλου Σταύρος-Κατινάρη Μαρία - Ξυπνώ και βλέπω σίδερα (Τα μάνταλα
TTITLE6=)[Β. Τσιτσάνης]
TTITLE7=Στίγκα Θεοδωσία-Κατινάρη Μαρία - Ας μην ξημέρωνε ποτέ [Απ. Χατζηχρήστο
TTITLE7=ς-Κ. Μάνεσης]
TTITLE8=Λεμπέσης Γιάννης - Τίποτα δε λογάριασα [Γιάννης Λεμπέσης]
TTITLE9=Αβράμογλου Σταύρος - Το Μαρόκο [Γ. Διαμαντόπουλος-Γ. Πετροπουλέας]
TTITLE10=Αντζελίνα-Αβράμογλου Σταύρος - Μέσ' στη χασάπικη αγορά [Μ. Βαμβακάρης
TTITLE10=]
TTITLE11=Τζωρτζής Γιώργος - Το ναυτόπαιδο [Γιώργος Τζωρτζής]
TTITLE12=Αβράμογλου Σταύρος-Ραζέλη Αφεντούλα - Το κουρασμένο βήμα σου [Μ. Μπακ
TTITLE12=άλης-Κ. Βίρβος]
EXTD=
EXTT0=
EXTT1=
EXTT2=
EXTT3=
EXTT4=
EXTT5=
EXTT6=
EXTT7=
EXTT8=
EXTT9=
EXTT10=
EXTT11=
EXTT12=
PLAYORDER=
